<?xml version="1.0" encoding="utf-8"?>
<!-- Generator: Adobe Illustrator 19.0.0, SVG Export Plug-In . SVG Version: 6.00 Build 0)  -->
<svg version="1.1" id="Layer_1" xmlns="http://www.w3.org/2000/svg" xmlns:xlink="http://www.w3.org/1999/xlink" x="0px" y="0px"
	 viewBox="0 0 275 60" style="enable-background:new 0 0 275 60;" xml:space="preserve">
<style type="text/css">
	.st0{fill:#FFFFFF;}
	.st1{font-family:'Nunito-Regular';}
	.st2{font-size:27.0915px;}
	.st3{font-family:'Nunito-Light';}
</style>
<g id="XMLID_207_">
	<text id="XMLID_215_" transform="matrix(1 0 0 1 63.397 38.1234)"><tspan x="0" y="0" class="st0 st1 st2">XLIFF </tspan><tspan x="77.8" y="0" class="st0 st3 st2">translator</tspan></text>
	<path id="XMLID_66_" class="st0" d="M37.6,34.6l-4-4l0,0c2.8-3.1,4.7-6.6,5.9-10.3h4.6V17H33v-3.2h-3.2V17H18.8v3.2h17.7
		c-1.1,3.1-2.7,6-5,8.5c-1.5-1.6-2.7-3.4-3.7-5.3h-3.2c1.2,2.6,2.7,5,4.7,7.2l-8.1,8l2.2,2.2l7.9-7.9l6.1,6.1L37.6,34.6z"/>
	<polygon id="XMLID_219_" class="st0" points="50.6,30.2 50.6,27.2 39.6,27.2 39.6,46.2 42.6,46.2 42.6,39.2 50.6,39.2 50.6,35.2 
		42.6,35.2 42.6,30.2 	"/>
</g>
</svg>
